<svg width="1270" height="566" viewBox="0 0 1270 566" fill="none" xmlns="http://www.w3.org/2000/svg">
<g clip-path="url(#clip0_636_598)">
<path d="M787.59 297.16C786.89 298.04 741.62 354.56 630.43 359.47C535.25 363.67 457.93 313.42 457.93 256.62C457.93 235.32 468.78 215.55 487.36 199.15V233.08C482.72 241.15 480.22 249.73 480.22 258.62C480.22 306.43 552.46 344.5 641.57 345.19C725.77 345.84 786.65 297.9 787.59 297.16Z" fill="#12274C"/>
<path d="M853.66 275.81L856.28 272.62C857.05 271.68 856.92 270.29 855.98 269.52C855.04 268.75 853.65 268.88 852.88 269.82L852.66 270.08L850.52 257.83L853.15 254.63C853.92 253.69 853.79 252.3 852.85 251.53C851.91 250.76 850.52 250.89 849.75 251.83L849.52 252.11L846.99 237.6C854.26 229.26 860.02 222.62 861.31 221.05C866.43 214.82 863.8 206.39 862.84 205.6C861.88 204.81 853.1 203.86 847.98 210.09C846.68 211.67 841.29 218.6 834.52 227.35L819.8 227.68L820.03 227.4C820.8 226.46 820.67 225.07 819.73 224.3C818.79 223.53 817.4 223.66 816.63 224.6L814 227.8L801.57 228.07L801.79 227.81C802.56 226.87 802.43 225.48 801.49 224.71C800.55 223.94 799.16 224.07 798.39 225.01L795.77 228.2L776.55 228.62L772.69 233.32L808.52 239.96L819.31 247.07C811.41 258.63 798.93 276.17 798.93 276.17L779.8 275.79L777.2 278.95L791.65 286C790.33 287.81 790.99 289.15 790.99 289.15C788.63 292.03 789.99 294.27 789.99 294.27C789.99 294.27 792.46 295.18 794.82 292.3C794.82 292.3 796.27 292.69 797.78 291.04L807.5 303.85L810.1 300.69L806.02 282C806.02 282 820.8 266.36 830.62 256.37L839.69 265.57L853.14 299.44L857 294.74L853.69 275.8L853.66 275.81Z" fill="#12274C"/>
<path d="M524.88 271.08C524.68 259 530.55 247.63 540.87 237.92V224.36C512.57 236.25 494.92 253.11 495.22 271.56C495.66 299.04 535.82 321.73 591.21 329.16C591.21 329.16 525.29 296.53 524.88 271.08Z" fill="url(#paint0_linear_636_598)"/>
<path d="M729.01 221.94V235.85C738.99 245.03 744.81 255.86 745 267.52C745.44 294.38 675.86 328.6 675.86 328.6C733.93 320.3 775.12 295.62 774.66 267.04C774.37 248.92 756.81 232.88 729.01 221.94Z" fill="url(#paint1_linear_636_598)"/>
<path d="M661.93 174.15V220.62L591.4 280.8H555.28V225.08H606.21V174.15H661.93Z" fill="#1F9ED2"/>
<path d="M712.86 225.081V280.801H661.93V331.731H606.21V296.041L665.68 225.081H712.86Z" fill="#19304C"/>
<path opacity="0.46" d="M502.39 193.281C501.95 195.321 501.73 197.381 501.73 199.461V187.971C501.73 189.771 501.95 191.531 502.39 193.281Z" fill="#0E0809"/>
<path d="M772.3 187.971V226.161C756.51 213.341 720.75 203.391 676.24 199.651V159.471H591.76V200.211C550.11 204.321 516.89 213.941 501.84 226.171H501.74V187.971C501.74 181.701 504.43 175.681 509.37 170.081C527.89 149.111 578.05 134.081 637.02 134.081C695.99 134.081 746.15 149.111 764.67 170.081C769.61 175.681 772.3 181.701 772.3 187.971Z" fill="url(#paint2_linear_636_598)"/>
<path d="M872.06 140.151L871.76 140.291L786.18 179.441C786.21 178.981 786.22 178.521 786.22 178.061C786.22 171.151 783.26 164.511 777.81 158.331C757.38 135.201 702.06 118.631 637.02 118.631C571.98 118.631 516.66 135.201 496.23 158.331C490.78 164.511 487.82 171.151 487.82 178.061V181.841L439.51 159.461V213.441C444.44 215.711 447.86 220.701 447.86 226.481C447.86 232.261 444.44 237.251 439.51 239.521L456.7 311.721H448.31L439.63 263.611L440.6 311.721H427.67L428.63 263.611L419.95 311.721H410.31L427.51 239.521C422.58 237.261 419.15 232.271 419.15 226.481C419.15 220.691 422.58 215.701 427.51 213.441V153.911L398.11 140.291L397.81 140.151L398.11 140.011L633.47 31.0107L871.76 140.011L872.06 140.151Z" fill="url(#paint3_linear_636_598)"/>
<path d="M66.8 486.031L60.24 464.481H27.24L20.68 486.031H0L31.95 395.131H55.42L87.5 486.031H66.82H66.8ZM55.65 448.381L49.09 427.331C48.68 425.931 48.13 424.121 47.45 421.911C46.77 419.701 46.09 417.451 45.41 415.161C44.73 412.871 44.18 410.881 43.77 409.181C43.36 410.871 42.79 412.971 42.07 415.471C41.35 417.971 40.66 420.331 40 422.561C39.34 424.791 38.86 426.381 38.58 427.331L32.08 448.381H55.67H55.65Z" fill="#19304C"/>
<path d="M137.2 486.031L115.4 415.011H114.84C114.92 416.701 115.06 419.251 115.24 422.661C115.43 426.071 115.6 429.691 115.77 433.531C115.93 437.371 116.02 440.841 116.02 443.931V486.041H98.8701V395.511H125L146.42 464.741H146.79L169.52 395.511H195.65V486.041H177.75V443.191C177.75 440.341 177.8 437.061 177.9 433.341C178 429.621 178.14 426.091 178.3 422.721C178.46 419.361 178.59 416.831 178.67 415.141H178.11L154.77 486.041H137.18L137.2 486.031Z" fill="#19304C"/>
<path d="M329.65 395.501L306.62 486.031H284.76L272.5 438.471C272.25 437.561 271.92 436.181 271.51 434.321C271.1 432.461 270.66 430.431 270.21 428.221C269.75 426.011 269.35 423.931 269 421.971C268.65 420.011 268.41 418.451 268.29 417.301C268.17 418.461 267.93 420.001 267.58 421.941C267.23 423.881 266.84 425.941 266.4 428.131C265.97 430.321 265.54 432.361 265.13 434.261C264.72 436.161 264.39 437.601 264.14 438.591L251.94 486.021H230.14L207.04 395.491H225.93L237.51 444.901C237.84 446.391 238.22 448.161 238.66 450.231C239.09 452.291 239.53 454.451 239.96 456.701C240.39 458.951 240.79 461.121 241.14 463.201C241.49 465.281 241.75 467.091 241.91 468.621C242.12 467.051 242.38 465.231 242.71 463.141C243.04 461.061 243.4 458.931 243.79 456.761C244.18 454.591 244.58 452.581 245 450.721C245.41 448.861 245.78 447.361 246.11 446.201L259.3 395.491H277.44L290.63 446.201C290.92 447.311 291.26 448.811 291.65 450.691C292.04 452.571 292.44 454.601 292.86 456.791C293.27 458.981 293.65 461.121 294.01 463.201C294.36 465.281 294.62 467.091 294.78 468.621C295.07 466.561 295.47 464.051 295.99 461.101C296.51 458.151 297.06 455.211 297.66 452.281C298.26 449.351 298.78 446.891 299.24 444.911L310.76 395.501H329.65Z" fill="#19304C"/>
<path d="M412.44 410.181C408.77 410.181 405.51 410.891 402.69 412.321C399.86 413.741 397.49 415.801 395.57 418.481C393.65 421.161 392.19 424.401 391.2 428.201C390.21 432.001 389.71 436.271 389.71 441.021C389.71 447.421 390.5 452.881 392.09 457.401C393.68 461.921 396.15 465.371 399.49 467.741C402.83 470.111 407.15 471.301 412.43 471.301C416.1 471.301 419.79 470.891 423.48 470.061C427.17 469.231 431.19 468.061 435.52 466.531V482.631C431.52 484.281 427.57 485.471 423.69 486.191C419.81 486.911 415.45 487.271 410.62 487.271C401.29 487.271 393.62 485.341 387.62 481.481C381.61 477.621 377.16 472.211 374.28 465.261C371.39 458.301 369.95 450.181 369.95 440.891C369.95 434.041 370.88 427.761 372.74 422.071C374.6 416.371 377.32 411.441 380.91 407.271C384.5 403.101 388.94 399.881 394.22 397.611C399.5 395.341 405.57 394.201 412.43 394.201C416.93 394.201 421.44 394.771 425.96 395.901C430.48 397.041 434.8 398.591 438.93 400.581L432.74 416.181C429.35 414.571 425.95 413.171 422.52 411.971C419.09 410.771 415.73 410.171 412.43 410.171L412.44 410.181Z" fill="#19304C"/>
<path d="M510.22 486.031L503.66 464.481H470.66L464.1 486.031H443.42L475.37 395.131H498.84L530.92 486.031H510.24H510.22ZM499.07 448.381L492.51 427.331C492.1 425.931 491.55 424.121 490.87 421.911C490.19 419.701 489.51 417.451 488.83 415.161C488.15 412.871 487.6 410.881 487.19 409.181C486.78 410.871 486.21 412.971 485.49 415.471C484.77 417.971 484.08 420.331 483.42 422.561C482.76 424.791 482.28 426.381 482 427.331L475.5 448.381H499.09H499.07Z" fill="#19304C"/>
<path d="M568.67 395.501C576.88 395.501 583.66 396.491 589.01 398.471C594.36 400.451 598.33 403.441 600.93 407.451C603.53 411.451 604.83 416.511 604.83 422.621C604.83 426.751 604.05 430.361 602.48 433.461C600.91 436.561 598.85 439.181 596.29 441.321C593.73 443.471 590.96 445.221 587.99 446.581L614.62 486.021H593.32L571.71 451.281H561.49V486.021H542.29V395.491H568.67V395.501ZM567.31 411.231H561.49V435.691H567.68C574.04 435.691 578.59 434.631 581.33 432.501C584.07 430.371 585.45 427.251 585.45 423.121C585.45 418.991 583.97 415.771 581.02 413.961C578.07 412.141 573.5 411.241 567.3 411.241L567.31 411.231Z" fill="#19304C"/>
<path d="M678.15 486.031H626.01V395.501H678.15V411.231H645.21V431.111H675.86V446.841H645.21V470.181H678.15V486.031Z" fill="#19304C"/>
<path d="M749.18 486.031H697.04V395.501H749.18V411.231H716.24V431.111H746.89V446.841H716.24V470.181H749.18V486.031Z" fill="#19304C"/>
<path d="M794.44 395.501C802.65 395.501 809.44 396.491 814.78 398.471C820.13 400.451 824.1 403.441 826.7 407.451C829.3 411.451 830.6 416.511 830.6 422.621C830.6 426.751 829.82 430.361 828.25 433.461C826.68 436.561 824.62 439.181 822.06 441.321C819.5 443.471 816.73 445.221 813.76 446.581L840.39 486.021H819.09L797.48 451.281H787.26V486.021H768.06V395.491H794.44V395.501ZM793.08 411.231H787.26V435.691H793.45C799.81 435.691 804.36 434.631 807.1 432.501C809.85 430.371 811.22 427.251 811.22 423.121C811.22 418.991 809.74 415.771 806.79 413.961C803.84 412.141 799.27 411.241 793.07 411.241L793.08 411.231Z" fill="#19304C"/>
<path d="M913.64 395.501C925.32 395.501 933.85 398.011 939.21 403.021C944.57 408.031 947.26 414.941 947.26 423.731C947.26 427.691 946.66 431.481 945.47 435.091C944.27 438.701 942.32 441.911 939.62 444.721C936.92 447.531 933.31 449.751 928.82 451.381C924.32 453.011 918.77 453.831 912.16 453.831H903.92V486.031H884.72V395.501H913.64ZM912.65 411.231H903.92V438.101H910.24C913.83 438.101 916.95 437.631 919.59 436.681C922.23 435.731 924.27 434.241 925.72 432.221C927.17 430.201 927.89 427.601 927.89 424.421C927.89 419.961 926.65 416.651 924.17 414.481C921.69 412.311 917.85 411.231 912.65 411.231Z" fill="#19304C"/>
<path d="M1046.53 440.651C1046.53 447.631 1045.66 453.971 1043.93 459.691C1042.2 465.411 1039.56 470.331 1036.03 474.461C1032.5 478.591 1028.03 481.761 1022.62 483.961C1017.21 486.161 1010.81 487.271 1003.42 487.271C996.03 487.271 989.63 486.171 984.22 483.961C978.81 481.751 974.34 478.581 970.81 474.461C967.28 470.331 964.65 465.401 962.92 459.661C961.19 453.921 960.32 447.541 960.32 440.531C960.32 431.161 961.86 423.001 964.93 416.041C968.01 409.081 972.74 403.691 979.14 399.851C985.54 396.011 993.67 394.091 1003.54 394.091C1013.41 394.091 1021.45 396.011 1027.78 399.851C1034.12 403.691 1038.82 409.101 1041.9 416.071C1044.97 423.051 1046.51 431.241 1046.51 440.651H1046.53ZM980.46 440.651C980.46 446.971 981.25 452.401 982.84 456.971C984.43 461.541 986.92 465.041 990.3 467.501C993.68 469.961 998.06 471.181 1003.43 471.181C1008.8 471.181 1013.3 469.951 1016.68 467.501C1020.06 465.041 1022.53 461.541 1024.08 456.971C1025.63 452.411 1026.4 446.971 1026.4 440.651C1026.4 431.161 1024.62 423.681 1021.07 418.231C1017.52 412.781 1011.68 410.061 1003.55 410.061C998.14 410.061 993.74 411.291 990.33 413.741C986.92 416.201 984.43 419.711 982.84 424.271C981.25 428.831 980.46 434.291 980.46 440.651Z" fill="#19304C"/>
<path d="M1065.29 486.031V395.501H1084.49V486.031H1065.29Z" fill="#19304C"/>
<path d="M1187.59 486.031H1163.19L1123.81 417.541H1123.25C1123.42 420.391 1123.56 423.261 1123.68 426.151C1123.8 429.041 1123.93 431.921 1124.05 434.791C1124.17 437.661 1124.3 440.541 1124.42 443.431V486.031H1107.27V395.501H1131.48L1170.8 463.301H1171.23C1171.15 460.491 1171.04 457.711 1170.92 454.941C1170.8 452.181 1170.68 449.411 1170.58 446.641C1170.48 443.881 1170.38 441.111 1170.3 438.341V395.491H1187.58V486.021L1187.59 486.031Z" fill="#19304C"/>
<path d="M1245.3 486.031H1226.1V411.481H1201.52V395.501H1269.88V411.481H1245.3V486.031Z" fill="#19304C"/>
<path d="M231.14 540.572H247.67V562.792C245.35 563.562 242.95 564.152 240.46 564.582C237.97 565.012 235.19 565.222 232.1 565.222C227.6 565.222 223.79 564.332 220.67 562.542C217.55 560.752 215.19 558.162 213.57 554.762C211.96 551.362 211.15 547.262 211.15 542.452C211.15 537.642 212.05 533.822 213.84 530.422C215.64 527.022 218.25 524.382 221.68 522.522C225.11 520.652 229.27 519.722 234.15 519.722C236.55 519.722 238.88 519.962 241.13 520.432C243.38 520.902 245.44 521.552 247.32 522.382L244.78 528.372C243.29 527.662 241.61 527.072 239.75 526.582C237.89 526.102 235.97 525.852 233.97 525.852C230.8 525.852 228.07 526.542 225.78 527.912C223.49 529.282 221.73 531.212 220.5 533.712C219.27 536.202 218.65 539.142 218.65 542.532C218.65 545.922 219.14 548.712 220.13 551.192C221.12 553.672 222.67 555.612 224.78 556.992C226.89 558.372 229.62 559.062 232.97 559.062C234.64 559.062 236.07 558.972 237.24 558.792C238.41 558.612 239.49 558.412 240.48 558.182V546.772H231.13V540.562L231.14 540.572Z" fill="#1F9ED2"/>
<path d="M293.02 520.351V548.991C293.02 552.081 292.37 554.841 291.07 557.281C289.77 559.721 287.81 561.661 285.18 563.081C282.56 564.501 279.26 565.211 275.28 565.211C269.61 565.211 265.29 563.721 262.34 560.751C259.38 557.771 257.9 553.811 257.9 548.871V520.351H265.17V548.231C265.17 551.921 266.04 554.651 267.77 556.401C269.51 558.161 272.1 559.031 275.55 559.031C277.93 559.031 279.87 558.611 281.38 557.771C282.88 556.931 283.99 555.701 284.71 554.081C285.43 552.461 285.78 550.491 285.78 548.191V520.341H293.02V520.351Z" fill="#1F9ED2"/>
<path d="M304.31 564.612V520.352H311.58V564.612H304.31Z" fill="#1F9ED2"/>
<path d="M359.17 542.061C359.17 547.051 358.24 551.211 356.38 554.551C354.52 557.891 351.83 560.401 348.3 562.091C344.77 563.771 340.51 564.621 335.52 564.621H323.23V520.361H336.85C341.43 520.361 345.39 521.181 348.72 522.831C352.05 524.471 354.62 526.911 356.44 530.131C358.26 533.351 359.16 537.331 359.16 542.071L359.17 542.061ZM351.6 542.271C351.6 538.641 351.03 535.651 349.89 533.311C348.75 530.971 347.07 529.231 344.86 528.091C342.65 526.951 339.93 526.381 336.7 526.381H330.49V558.531H335.64C340.99 558.531 344.98 557.171 347.63 554.441C350.27 551.721 351.6 547.661 351.6 542.271Z" fill="#1F9ED2"/>
<path d="M405.61 564.612H396.68L375 529.282H374.73C374.81 530.472 374.89 531.732 374.96 533.062C375.03 534.392 375.09 535.772 375.14 537.182C375.19 538.592 375.24 540.032 375.28 541.482V564.612H368.68V520.352H377.55L399.2 555.442H399.41C399.37 554.412 399.32 553.232 399.26 551.902C399.2 550.572 399.14 549.192 399.09 547.772C399.04 546.352 399 544.972 398.98 543.642V520.362H405.61V564.622V564.612Z" fill="#1F9ED2"/>
<path d="M435.1 540.572H451.63V562.792C449.31 563.562 446.91 564.152 444.42 564.582C441.93 565.012 439.15 565.222 436.06 565.222C431.56 565.222 427.75 564.332 424.63 562.542C421.51 560.752 419.15 558.162 417.53 554.762C415.92 551.362 415.11 547.262 415.11 542.452C415.11 537.642 416.01 533.822 417.8 530.422C419.6 527.022 422.21 524.382 425.64 522.522C429.07 520.652 433.23 519.722 438.11 519.722C440.51 519.722 442.84 519.962 445.09 520.432C447.34 520.902 449.4 521.552 451.28 522.382L448.74 528.372C447.25 527.662 445.57 527.072 443.71 526.582C441.85 526.102 439.93 525.852 437.93 525.852C434.76 525.852 432.03 526.542 429.74 527.912C427.45 529.282 425.69 531.212 424.46 533.712C423.23 536.202 422.61 539.142 422.61 542.532C422.61 545.922 423.1 548.712 424.09 551.192C425.08 553.672 426.63 555.612 428.74 556.992C430.85 558.372 433.58 559.062 436.93 559.062C438.6 559.062 440.03 558.972 441.2 558.792C442.37 558.612 443.45 558.412 444.44 558.182V546.772H435.09V540.562L435.1 540.572Z" fill="#1F9ED2"/>
<path d="M513.079 520.351V548.991C513.079 552.081 512.429 554.841 511.129 557.281C509.829 559.721 507.869 561.661 505.239 563.081C502.619 564.501 499.319 565.211 495.339 565.211C489.669 565.211 485.349 563.721 482.399 560.751C479.439 557.771 477.959 553.811 477.959 548.871V520.351H485.229V548.231C485.229 551.921 486.099 554.651 487.829 556.401C489.569 558.161 492.159 559.031 495.609 559.031C497.989 559.031 499.929 558.611 501.439 557.771C502.939 556.931 504.049 555.701 504.769 554.081C505.489 552.461 505.839 550.491 505.839 548.191V520.341H513.079V520.351Z" fill="#1F9ED2"/>
<path d="M542.23 540.572H558.76V562.792C556.44 563.562 554.04 564.152 551.55 564.582C549.06 565.012 546.28 565.222 543.19 565.222C538.69 565.222 534.88 564.332 531.76 562.542C528.64 560.752 526.28 558.162 524.66 554.762C523.05 551.362 522.24 547.262 522.24 542.452C522.24 537.642 523.14 533.822 524.93 530.422C526.73 527.022 529.34 524.382 532.77 522.522C536.2 520.652 540.36 519.722 545.24 519.722C547.64 519.722 549.97 519.962 552.22 520.432C554.47 520.902 556.53 521.552 558.41 522.382L555.87 528.372C554.38 527.662 552.7 527.072 550.84 526.582C548.98 526.102 547.06 525.852 545.06 525.852C541.89 525.852 539.16 526.542 536.87 527.912C534.58 529.282 532.82 531.212 531.59 533.712C530.36 536.202 529.74 539.142 529.74 542.532C529.74 545.922 530.23 548.712 531.22 551.192C532.21 553.672 533.76 555.612 535.87 556.992C537.98 558.372 540.71 559.062 544.06 559.062C545.73 559.062 547.16 558.972 548.33 558.792C549.5 558.612 550.58 558.412 551.57 558.182V546.772H542.22V540.562L542.23 540.572Z" fill="#1F9ED2"/>
<path d="M622.4 564.612H613.47L591.79 529.282H591.52C591.6 530.472 591.68 531.732 591.75 533.062C591.82 534.392 591.88 535.772 591.93 537.182C591.98 538.592 592.03 540.032 592.07 541.482V564.612H585.47V520.352H594.34L615.99 555.442H616.2C616.16 554.412 616.11 553.232 616.05 551.902C615.99 550.572 615.93 549.192 615.88 547.772C615.83 546.352 615.79 544.972 615.77 543.642V520.362H622.4V564.622V564.612Z" fill="#1F9ED2"/>
<path d="M659.09 564.612H634.02V520.352H659.09V526.472H641.29V538.492H657.97V544.572H641.29V558.472H659.09V564.622V564.612Z" fill="#1F9ED2"/>
<path d="M693.69 564.612H668.62V520.352H693.69V526.472H675.89V538.492H692.57V544.572H675.89V558.472H693.69V564.622V564.612Z" fill="#1F9ED2"/>
<path d="M718.58 564.612H711.28V526.532H698.32V520.352H731.5V526.532H718.57V564.612H718.58Z" fill="#1F9ED2"/>
<path d="M779.91 552.561C779.91 555.181 779.27 557.441 777.99 559.341C776.71 561.241 774.87 562.691 772.48 563.701C770.09 564.711 767.24 565.211 763.93 565.211C762.31 565.211 760.77 565.121 759.3 564.941C757.83 564.761 756.44 564.491 755.14 564.141C753.84 563.791 752.65 563.361 751.58 562.851V556.011C753.38 556.801 755.38 557.511 757.6 558.141C759.82 558.781 762.08 559.091 764.38 559.091C766.26 559.091 767.82 558.841 769.06 558.351C770.3 557.851 771.23 557.151 771.83 556.231C772.44 555.311 772.74 554.241 772.74 553.011C772.74 551.701 772.39 550.591 771.68 549.681C770.97 548.771 769.91 547.941 768.49 547.181C767.07 546.421 765.29 545.611 763.15 544.741C761.7 544.161 760.31 543.491 758.99 542.741C757.67 541.991 756.49 541.121 755.46 540.111C754.43 539.101 753.62 537.901 753.02 536.521C752.43 535.141 752.13 533.511 752.13 531.631C752.13 529.131 752.73 526.991 753.93 525.211C755.13 523.431 756.83 522.071 759.02 521.121C761.21 520.171 763.77 519.701 766.69 519.701C769.01 519.701 771.2 519.941 773.24 520.431C775.29 520.911 777.3 521.601 779.28 522.491L776.98 528.331C775.16 527.581 773.4 526.991 771.7 526.541C769.99 526.101 768.25 525.871 766.48 525.871C764.95 525.871 763.64 526.101 762.57 526.571C761.5 527.031 760.69 527.691 760.13 528.521C759.58 529.361 759.3 530.351 759.3 531.501C759.3 532.791 759.62 533.881 760.25 534.751C760.88 535.621 761.87 536.431 763.22 537.161C764.56 537.891 766.29 538.691 768.41 539.581C770.85 540.591 772.93 541.651 774.63 542.761C776.34 543.871 777.64 545.201 778.55 546.741C779.46 548.281 779.91 550.221 779.91 552.541V552.561Z" fill="#1F9ED2"/>
<path d="M803.79 564.612H796.49V526.532H783.53V520.352H816.71V526.532H803.78V564.612H803.79Z" fill="#1F9ED2"/>
<path d="M858.23 520.351V548.991C858.23 552.081 857.58 554.841 856.28 557.281C854.98 559.721 853.02 561.661 850.39 563.081C847.77 564.501 844.47 565.211 840.49 565.211C834.82 565.211 830.5 563.721 827.55 560.751C824.59 557.771 823.12 553.811 823.12 548.871V520.351H830.39V548.231C830.39 551.921 831.26 554.651 832.99 556.401C834.73 558.161 837.32 559.031 840.77 559.031C843.15 559.031 845.09 558.611 846.6 557.771C848.1 556.931 849.21 555.701 849.93 554.081C850.65 552.461 851.01 550.491 851.01 548.191V520.341H858.25L858.23 520.351Z" fill="#1F9ED2"/>
<path d="M905.45 542.061C905.45 547.051 904.52 551.211 902.66 554.551C900.8 557.891 898.11 560.401 894.58 562.091C891.05 563.771 886.79 564.621 881.8 564.621H869.51V520.361H883.13C887.71 520.361 891.67 521.181 895 522.831C898.33 524.471 900.9 526.911 902.72 530.131C904.54 533.351 905.44 537.331 905.44 542.071L905.45 542.061ZM897.88 542.271C897.88 538.641 897.31 535.651 896.17 533.311C895.03 530.971 893.35 529.231 891.14 528.091C888.93 526.951 886.21 526.381 882.98 526.381H876.77V558.531H881.92C887.27 558.531 891.26 557.171 893.91 554.441C896.55 551.721 897.88 547.661 897.88 542.271Z" fill="#1F9ED2"/>
<path d="M940.029 564.612H914.959V520.352H940.029V526.472H922.229V538.492H938.909V544.572H922.229V558.472H940.029V564.622V564.612Z" fill="#1F9ED2"/>
<path d="M986.5 564.612H977.57L955.89 529.282H955.62C955.7 530.472 955.78 531.732 955.85 533.062C955.92 534.392 955.98 535.772 956.03 537.182C956.08 538.592 956.13 540.032 956.17 541.482V564.612H949.57V520.352H958.44L980.09 555.442H980.3C980.26 554.412 980.21 553.232 980.15 551.902C980.09 550.572 980.03 549.192 979.98 547.772C979.93 546.352 979.89 544.972 979.87 543.642V520.362H986.5V564.622V564.612Z" fill="#1F9ED2"/>
<path d="M1013.47 564.612H1006.17V526.532H993.209V520.352H1026.39V526.532H1013.46V564.612H1013.47Z" fill="#1F9ED2"/>
<path d="M1058.7 552.561C1058.7 555.181 1058.06 557.441 1056.78 559.341C1055.5 561.241 1053.66 562.691 1051.27 563.701C1048.88 564.711 1046.03 565.211 1042.72 565.211C1041.1 565.211 1039.56 565.121 1038.09 564.941C1036.62 564.761 1035.23 564.491 1033.93 564.141C1032.63 563.791 1031.44 563.361 1030.37 562.851V556.011C1032.17 556.801 1034.17 557.511 1036.39 558.141C1038.61 558.781 1040.87 559.091 1043.17 559.091C1045.05 559.091 1046.61 558.841 1047.85 558.351C1049.09 557.851 1050.02 557.151 1050.62 556.231C1051.23 555.311 1051.53 554.241 1051.53 553.011C1051.53 551.701 1051.18 550.591 1050.47 549.681C1049.76 548.771 1048.7 547.941 1047.28 547.181C1045.86 546.421 1044.08 545.611 1041.94 544.741C1040.49 544.161 1039.1 543.491 1037.78 542.741C1036.46 541.991 1035.28 541.121 1034.25 540.111C1033.22 539.101 1032.41 537.901 1031.81 536.521C1031.22 535.141 1030.92 533.511 1030.92 531.631C1030.92 529.131 1031.52 526.991 1032.72 525.211C1033.92 523.431 1035.62 522.071 1037.81 521.121C1040 520.171 1042.56 519.701 1045.48 519.701C1047.8 519.701 1049.99 519.941 1052.03 520.431C1054.08 520.911 1056.09 521.601 1058.07 522.491L1055.77 528.331C1053.95 527.581 1052.19 526.991 1050.49 526.541C1048.78 526.101 1047.04 525.871 1045.27 525.871C1043.74 525.871 1042.43 526.101 1041.36 526.571C1040.29 527.031 1039.48 527.691 1038.92 528.521C1038.37 529.361 1038.09 530.351 1038.09 531.501C1038.09 532.791 1038.41 533.881 1039.04 534.751C1039.67 535.621 1040.66 536.431 1042.01 537.161C1043.35 537.891 1045.08 538.691 1047.2 539.581C1049.64 540.591 1051.72 541.651 1053.42 542.761C1055.13 543.871 1056.43 545.201 1057.34 546.741C1058.25 548.281 1058.7 550.221 1058.7 552.541V552.561Z" fill="#1F9ED2"/>
</g>
<defs>
<linearGradient id="paint0_linear_636_598" x1="495.22" y1="276.76" x2="591.21" y2="276.76" gradientUnits="userSpaceOnUse">
<stop stop-color="#2485C6"/>
<stop offset="1" stop-color="#2F6398"/>
</linearGradient>
<linearGradient id="paint1_linear_636_598" x1="675.86" y1="275.27" x2="774.67" y2="275.27" gradientUnits="userSpaceOnUse">
<stop stop-color="#2485C6"/>
<stop offset="1" stop-color="#2F6398"/>
</linearGradient>
<linearGradient id="paint2_linear_636_598" x1="501.73" y1="180.121" x2="772.3" y2="180.121" gradientUnits="userSpaceOnUse">
<stop stop-color="#EC6C24"/>
<stop offset="0.47" stop-color="#F68B1F"/>
<stop offset="1" stop-color="#ED7928"/>
</linearGradient>
<linearGradient id="paint3_linear_636_598" x1="397.8" y1="171.361" x2="872.06" y2="171.361" gradientUnits="userSpaceOnUse">
<stop stop-color="#EC6C24"/>
<stop offset="0.47" stop-color="#F68B1F"/>
<stop offset="1" stop-color="#ED7928"/>
</linearGradient>
<clipPath id="clip0_636_598">
<rect width="1269.88" height="565.222" fill="white"/>
</clipPath>
</defs>
</svg>
